<?xml version="1.0" encoding="UTF-8"?>
<svg id="Layer_2" data-name="Layer 2" xmlns="http://www.w3.org/2000/svg" xmlns:xlink="http://www.w3.org/1999/xlink" viewBox="0 0 239.33 230.17">
  <defs>
    <style>
      .cls-1 {
        fill: none;
      }

      .cls-2 {
        fill: url(#linear-gradient-2);
      }

      .cls-3 {
        fill: url(#linear-gradient);
      }

      .cls-4 {
        clip-path: url(#clippath-1);
      }

      .cls-5 {
        clip-path: url(#clippath-3);
      }

      .cls-6 {
        clip-path: url(#clippath-4);
      }

      .cls-7 {
        clip-path: url(#clippath-2);
      }

      .cls-8 {
        fill: #fff;
      }

      .cls-9 {
        fill: #f4ad3f;
      }

      .cls-10 {
        clip-path: url(#clippath);
      }
    </style>
    <clipPath id="clippath">
      <path class="cls-1" d="M105.4,133.78c-3.79-3.81-5.86-8.87-5.84-14.24.02-5.37,2.13-10.41,5.94-14.2,7.87-7.81,20.63-7.77,28.44.1,3.79,3.81,5.86,8.87,5.84,14.24-.02,5.37-2.13,10.42-5.94,14.2l-14.27,14.17-14.17-14.27ZM71.38,192.28c-4.87-3.24-9.42-6.99-13.6-11.2-16.96-17.07-26-39.91-25.3-64.06.6-20.93,8.79-41.08,23-56.47,17.68-19.16,42.32-29.28,68.37-28.07,20.92.97,40.91,9.56,56.05,24.03,17.47,16.7,27.08,39.32,27,63.38-.08,23.3-9.22,45.17-25.75,61.59-4.21,4.18-8.78,7.9-13.67,11.11-1.28.84-2.96.69-4.04-.4l-21-21.14,13.61-13.52c10.05-9.99,16.09-23.48,16.17-37.65.07-14.08-5.35-27.33-15.27-37.32-20.42-20.56-53.76-20.67-74.32-.25-9.96,9.89-15.47,23.07-15.52,37.11-.05,14.04,5.38,27.25,15.27,37.21l14.17,14.27-21.14,21c-.61.61-1.42.92-2.23.92-.62,0-1.25-.18-1.81-.55M35.33,34.71C12.65,57.24.11,87.25,0,119.21c-.11,31.97,12.24,62.06,34.77,84.73,10.19,10.26,21.97,18.49,35.01,24.47,6.14,2.82,13.39,1.53,18.19-3.24l31.45-31.24,31.24,31.45c4.77,4.8,12.01,6.13,18.17,3.36,13.08-5.89,24.91-14.04,35.17-24.23,22.68-22.53,35.22-52.53,35.33-84.5.11-31.96-12.24-62.05-34.77-84.73C181.21,11.77,150.44,0,119.66,0S58.63,11.56,35.33,34.71"/>
    </clipPath>
    <clipPath id="clippath-1">
      <rect class="cls-1" x="71.8" y="170.91" width="47.62" height="57.05"/>
    </clipPath>
    <clipPath id="clippath-2">
      <polygon class="cls-1" points="119.42 193.95 96.56 170.91 71.8 187.46 85.25 227.96 119.42 193.95"/>
    </clipPath>
    <linearGradient id="linear-gradient" x1="-7856.96" y1="281.63" x2="-7855.44" y2="281.63" gradientTransform="translate(208146.46 7657.51) scale(26.48 -26.48)" gradientUnits="userSpaceOnUse">
      <stop offset="0" stop-color="#fff"/>
      <stop offset="1" stop-color="#b8bbbb"/>
    </linearGradient>
    <clipPath id="clippath-3">
      <rect class="cls-1" x="119.67" y="110.99" width="60.7" height="60.07"/>
    </clipPath>
    <clipPath id="clippath-4">
      <polygon class="cls-1" points="119.67 148.01 142.43 171.06 180.37 139.75 175.78 112.19 136.71 110.99 119.67 148.01"/>
    </clipPath>
    <linearGradient id="linear-gradient-2" x1="-8171.92" y1="611.12" x2="-8170.4" y2="611.12" gradientTransform="translate(-326101.4 -24258.01) rotate(-180) scale(39.92 -39.92)" xlink:href="#linear-gradient"/>
  </defs>
  <g id="text">
    <g>
      <path class="cls-9" d="M119.66,81.82c20.1,0,36.4,16.3,36.4,36.4s-16.3,36.4-36.4,36.4-36.4-16.3-36.4-36.4,16.3-36.4,36.4-36.4"/>
      <path class="cls-8" d="M0,119.21c.11-31.96,12.65-61.97,35.33-84.5,46.81-46.5,122.73-46.25,169.23.56,22.53,22.68,34.87,52.77,34.77,84.73-.11,31.96-12.65,61.97-35.33,84.5-10.26,10.19-22.09,18.34-35.17,24.23-6.17,2.78-13.41,1.44-18.17-3.36l-31.24-31.45-31.45,31.24c-4.8,4.77-12.04,6.06-18.19,3.24-13.04-5.98-24.82-14.21-35.01-24.47C12.24,181.26-.11,151.17,0,119.21M206.89,119.9c.08-24.07-9.53-46.68-27-63.38-15.14-14.47-35.12-23.06-56.05-24.03-26.05-1.21-50.69,8.9-68.37,28.07-14.2,15.39-22.39,35.54-23,56.47-.7,24.15,8.35,46.99,25.31,64.06,4.18,4.21,8.73,7.95,13.6,11.2,1.27.85,2.95.71,4.04-.37l21.13-21-14.17-14.27c-9.89-9.96-15.32-23.17-15.27-37.21.05-14.04,5.56-27.22,15.52-37.11,20.56-20.42,53.9-20.31,74.32.25,9.92,9.98,15.34,23.24,15.27,37.32-.07,14.17-6.11,27.66-16.17,37.65l-13.61,13.52,21,21.14c1.08,1.08,2.76,1.23,4.04.4,4.89-3.21,9.46-6.92,13.67-11.11,16.53-16.42,25.67-38.29,25.75-61.59M139.77,119.68c.02-5.37-2.06-10.43-5.84-14.24-7.82-7.87-20.57-7.91-28.44-.09-3.81,3.79-5.92,8.83-5.94,14.2-.02,5.37,2.06,10.43,5.84,14.24l14.17,14.27,14.27-14.17c3.81-3.79,5.92-8.83,5.94-14.2"/>
      <g class="cls-10">
        <g class="cls-4">
          <g class="cls-7">
            <rect class="cls-3" x="58.6" y="162.43" width="74.01" height="74.01" transform="translate(-113.02 126.02) rotate(-45)"/>
          </g>
        </g>
        <g class="cls-5">
          <g class="cls-6">
            <rect class="cls-2" x="107.32" y="98.33" width="85.4" height="85.4" transform="translate(-55.78 147.38) rotate(-45)"/>
          </g>
        </g>
      </g>
    </g>
  </g>
</svg>