<svg xmlns="http://www.w3.org/2000/svg" width="1280" height="2642" fill="none" viewBox="0 0 1280 2642">
  <g clip-path="url(#a)">
    <rect width="1280" height="2642" fill="#000" rx="210"/>
    <rect width="1257" height="2619" x="11.5" y="11.501" stroke="#F08437" stroke-width="13" rx="198.5"/>
    <rect width="1275" height="2637" x="2.5" y="2.501" stroke="#CE4C1B" stroke-width="5" rx="207.5"/>
    <g filter="url(#b)" opacity=".9">
      <rect width="1270" height="2631" x="5" y="6.001" stroke="#ED5700" stroke-width="5" rx="206"/>
    </g>
    <g filter="url(#c)" opacity=".8">
      <rect width="1236" height="2598" x="22" y="22.001" stroke="#C46A44" stroke-width="2" rx="188"/>
    </g>
    <path fill="#fff" d="M464.656 616.055c-30.281 0-50.336-16.602-57.64-33.469-1.86-3.719-2.657-6.64-2.657-9.562 0-4.782 3.188-7.836 8.102-7.836 4.117 0 6.641 1.992 9.828 8.234 8.234 16.867 21.117 26.695 42.5 26.695 34.531 0 53.789-31.343 54.984-83.937v-5.977h-.398c-7.305 21.516-30.148 36.657-56.445 36.657-36.524 0-63.618-26.961-63.618-62.953 0-37.852 28.024-65.61 66.54-65.61 25.898 0 46.882 13.149 58.57 36.258 8.633 15.008 12.883 34.398 12.883 58.57 0 64.149-26.961 102.93-72.649 102.93Zm1.196-85.266c27.492 0 48.875-20.718 48.875-46.484 0-27.758-21.118-49.672-48.743-49.672-27.226 0-48.343 21.383-48.343 48.742 0 26.828 20.187 47.414 48.211 47.414Zm117.406-50.867c-6.906 0-12.485-5.445-12.485-12.351a12.47 12.47 0 0 1 12.485-12.485c6.906 0 12.351 5.578 12.351 12.485 0 6.906-5.445 12.351-12.351 12.351Zm0 100.008c-6.906 0-12.485-5.445-12.485-12.484 0-6.907 5.579-12.352 12.485-12.352s12.351 5.445 12.351 12.352c0 7.039-5.445 12.484-12.351 12.484Zm149.945 35.328c-5.18 0-8.898-3.851-8.898-9.43v-36.125h-86.993c-6.507 0-10.624-4.117-10.624-10.492 0-4.648 1.062-7.836 4.382-13.679 18.86-30.813 46.618-70.922 75.703-111.696 7.836-11.289 12.618-14.742 20.454-14.742 9.562 0 14.742 4.914 14.742 14.211v120.328h21.117c4.914 0 8.5 3.055 8.5 7.969s-3.586 8.101-8.5 8.101h-21.117v36.125c0 5.579-3.719 9.43-8.766 9.43Zm-8.898-61.625V437.555h-.266c-34.664 48.211-59.5 84.07-78.758 115.547v.531h79.024Zm125.773 61.625c-5.18 0-8.766-3.851-8.766-9.43V441.274h-.398L800.273 468.5c-1.992 1.461-3.851 2.125-6.109 2.125-4.383 0-7.305-3.054-7.305-7.57 0-3.32 1.196-5.445 5.047-8.234l45.422-30.946c5.313-3.851 7.703-4.781 11.82-4.781 5.977 0 9.696 3.719 9.696 9.961v176.773c0 5.579-3.586 9.43-8.766 9.43ZM399.219 360.75c-8.469 0-14.5-3.812-16.188-9.25a7.018 7.018 0 0 1-.312-1.968c0-1.782 1-2.907 2.593-2.907 1.407 0 2.282.719 2.719 2.219 1.375 4.656 5.813 6.844 11.5 6.844 6.125 0 10.563-3.219 10.563-7.656 0-3.782-2.5-6.282-8.75-7.657l-5-1.093c-9.032-1.969-12.938-6.063-12.938-12.469 0-7.438 6.563-12.656 15.906-12.656 7.532 0 13.594 3.781 15.219 9.875.094.343.157.812.157 1.406 0 1.531-1.063 2.531-2.563 2.531-1.437 0-2.313-.75-2.813-2.187-1.562-4.563-5.281-6.563-10.156-6.563-5.625 0-9.968 2.75-9.968 7.344 0 3.562 2.406 6 8.562 7.344l5 1.093c9.406 2.063 13.125 5.813 13.125 12.188 0 8.344-6.563 13.562-16.656 13.562Zm33.469-.187c-7.094 0-11.25-4.594-11.25-11.969v-18.75c0-1.719 1.124-2.906 2.718-2.906 1.594 0 2.719 1.187 2.719 2.906v17.781c0 5.282 2.469 8.125 7.5 8.125 5.281 0 8.469-3.625 8.469-9.156v-16.75c0-1.719 1.125-2.906 2.718-2.906 1.594 0 2.719 1.187 2.719 2.906v27.969c0 1.562-1 2.75-2.562 2.75-1.563 0-2.594-1.188-2.594-2.75v-3.094H443c-1.938 3.75-5.312 5.844-10.312 5.844Zm25.374 0c-1.593 0-2.718-1.188-2.718-2.906v-27.969c0-1.625 1.062-2.75 2.562-2.75 1.5 0 2.563 1.125 2.563 2.75v3h.125c1.812-3.5 5.281-5.75 10.312-5.75 7.125 0 11.25 4.594 11.25 11.969v18.75c0 1.718-1.125 2.906-2.718 2.906-1.594 0-2.719-1.188-2.719-2.906v-17.782c0-5.25-2.469-8.125-7.469-8.125-5.125 0-8.469 3.625-8.469 9.125v16.782c0 1.718-1.125 2.906-2.719 2.906Zm43.344 0c-8.281 0-13.906-6.625-13.906-16.813 0-10.187 5.594-16.812 13.781-16.812 4.657 0 8.407 2.281 10.344 5.844h.125V317.25c0-1.718 1.125-2.906 2.719-2.906 1.593 0 2.719 1.188 2.719 2.906v40.657c0 1.562-1.094 2.656-2.657 2.656-1.531 0-2.781-1.063-2.781-2.656v-3.719h-.094c-1.781 3.875-5.156 6.375-10.25 6.375Zm1.032-4.781c5.593 0 9.343-4.75 9.343-12.032 0-7.25-3.75-12.031-9.343-12.031-5.75 0-9.376 4.688-9.376 12.031 0 7.375 3.626 12.032 9.376 12.032ZM534 360.563c-6.469 0-10.812-3.906-10.812-9.75 0-5.563 4.281-9.063 11.781-9.5l9.343-.531v-2.719c0-3.969-2.624-6.344-7.124-6.344-3.532 0-5.938 1.281-7.75 4.5-.5.906-1.219 1.313-2.25 1.313-1.407 0-2.407-.969-2.407-2.438 0-.687.219-1.469.657-2.25 1.843-3.562 6.593-5.906 11.874-5.906 7.626 0 12.438 4.125 12.438 10.594v20.281c0 1.625-1.062 2.75-2.562 2.75-1.532 0-2.594-1.125-2.594-2.75v-3.406h-.125c-1.938 3.718-6.094 6.156-10.469 6.156Zm1.219-4.625c5.125 0 9.093-3.594 9.093-8.281V345l-8.718.532c-4.375.281-6.875 2.218-6.875 5.281 0 3.094 2.593 5.125 6.5 5.125Zm24.625 16.219c-2.625 0-4.094-.969-4.094-2.688 0-1.187.812-2 2.188-2 .781 0 1 .031 1.843.031 2.063 0 4.031-1.25 5.313-5.187l.75-2.281-11.188-29.157c-.187-.531-.281-1.031-.281-1.437 0-1.5 1.156-2.5 2.719-2.5 1.281 0 2.094.562 2.594 2l8.968 25.625h.094l9-25.625c.5-1.438 1.219-2 2.562-2 1.563 0 2.657 1.031 2.657 2.5 0 .406-.094.906-.281 1.437l-12 31.407c-2.813 7.468-5.469 9.875-10.844 9.875Zm27.75-19.407c1.594 0 2.718.938 2.718 2.469 0 .563-.062 1.031-.25 1.719l-2.874 10.75c-.344 1.344-1.063 1.969-2.376 1.969-1.25 0-2.218-.719-2.218-1.969 0-.469.062-.781.094-.969l2.218-11.594c.344-1.718 1.219-2.375 2.688-2.375Zm32.281 8c-5.813 0-10.5-3-12.156-7.75-.344-1-.563-1.812-.563-2.968 0-1.813 1-2.875 2.656-2.875 1.438 0 2.313.781 2.782 2.531 1.031 3.781 3.625 5.875 7.25 5.875 4.968 0 7.656-2.969 7.656-8.469v-29.719c0-1.781 1.094-2.906 2.812-2.906 1.719 0 2.813 1.125 2.813 2.906v29.75c0 8.563-4.937 13.625-13.25 13.625Zm30.625-.187c-6.469 0-10.812-3.906-10.812-9.75 0-5.563 4.281-9.063 11.781-9.5l9.343-.531v-2.719c0-3.969-2.624-6.344-7.124-6.344-3.532 0-5.938 1.281-7.75 4.5-.5.906-1.219 1.313-2.25 1.313-1.407 0-2.407-.969-2.407-2.438 0-.687.219-1.469.657-2.25 1.843-3.562 6.593-5.906 11.874-5.906 7.626 0 12.438 4.125 12.438 10.594v20.281c0 1.625-1.062 2.75-2.562 2.75-1.532 0-2.594-1.125-2.594-2.75v-3.406h-.125c-1.938 3.718-6.094 6.156-10.469 6.156Zm1.219-4.625c5.125 0 9.093-3.594 9.093-8.281V345l-8.718.532c-4.375.281-6.875 2.218-6.875 5.281 0 3.094 2.593 5.125 6.5 5.125Zm24.156 4.625c-1.594 0-2.719-1.188-2.719-2.906v-27.969c0-1.625 1.063-2.75 2.563-2.75 1.5 0 2.562 1.125 2.562 2.75v3h.125c1.813-3.5 5.282-5.75 10.313-5.75 7.125 0 11.25 4.594 11.25 11.969v18.75c0 1.718-1.125 2.906-2.719 2.906-1.594 0-2.719-1.188-2.719-2.906v-17.782c0-5.25-2.469-8.125-7.469-8.125-5.124 0-8.468 3.625-8.468 9.125v16.782c0 1.718-1.125 2.906-2.719 2.906Zm42.125 0c-7.094 0-11.25-4.594-11.25-11.969v-18.75c0-1.719 1.125-2.906 2.719-2.906 1.593 0 2.719 1.187 2.719 2.906v17.781c0 5.282 2.468 8.125 7.5 8.125 5.281 0 8.468-3.625 8.468-9.156v-16.75c0-1.719 1.125-2.906 2.719-2.906 1.594 0 2.719 1.187 2.719 2.906v27.969c0 1.562-1 2.75-2.563 2.75-1.562 0-2.593-1.188-2.593-2.75v-3.094h-.126c-1.937 3.75-5.312 5.844-10.312 5.844Zm32.125 0c-6.469 0-10.813-3.906-10.813-9.75 0-5.563 4.282-9.063 11.782-9.5l9.344-.531v-2.719c0-3.969-2.626-6.344-7.126-6.344-3.531 0-5.937 1.281-7.75 4.5-.5.906-1.218 1.313-2.25 1.313-1.406 0-2.406-.969-2.406-2.438 0-.687.219-1.469.656-2.25 1.844-3.562 6.594-5.906 11.876-5.906 7.624 0 12.437 4.125 12.437 10.594v20.281c0 1.625-1.063 2.75-2.563 2.75-1.531 0-2.593-1.125-2.593-2.75v-3.406h-.125c-1.938 3.718-6.094 6.156-10.469 6.156Zm1.219-4.625c5.125 0 9.094-3.594 9.094-8.281V345l-8.719.532c-4.375.281-6.875 2.218-6.875 5.281 0 3.094 2.594 5.125 6.5 5.125Zm24.156 4.625c-1.594 0-2.719-1.188-2.719-2.906v-27.969c0-1.625 1.063-2.75 2.563-2.75 1.5 0 2.562 1.125 2.562 2.75v3.125h.125c.938-3.375 4.125-5.875 7.375-5.875 1.188 0 2.032.281 2.563.781.469.438.687 1.063.687 1.813 0 .843-.281 1.468-.844 1.906-.562.469-1.406.687-2.593.687-4.907 0-7 3.532-7 7.688v17.844c0 1.718-1.125 2.906-2.719 2.906Zm20.219 11.594c-2.625 0-4.094-.969-4.094-2.688 0-1.187.813-2 2.187-2 .782 0 1 .031 1.844.031 2.063 0 4.032-1.25 5.313-5.187l.75-2.281-11.188-29.157c-.187-.531-.281-1.031-.281-1.437 0-1.5 1.156-2.5 2.719-2.5 1.281 0 2.093.562 2.593 2l8.969 25.625h.094l9-25.625c.5-1.438 1.219-2 2.563-2 1.562 0 2.656 1.031 2.656 2.5 0 .406-.094.906-.282 1.437l-12 31.407c-2.812 7.468-5.468 9.875-10.843 9.875Zm55.375-11.594c-1.594 0-2.719-1.188-2.719-2.906v-36.594h-.125l-8.438 5.906c-.624.438-1.218.656-1.906.656-1.312 0-2.218-.937-2.218-2.312 0-1 .374-1.656 1.562-2.5l9.656-6.906c1.75-1.25 2.5-1.563 3.782-1.563 1.937 0 3.124 1.188 3.124 3.156v40.157c0 1.718-1.124 2.906-2.718 2.906Zm30.5.219c-6.75 0-12.125-3.657-14.906-10.157-1.5-3.468-2.219-7.531-2.219-12.406 0-15.187 6.469-24.094 17.5-24.094 5.781 0 10.812 2.688 13.343 7.094.563.969.813 1.75.813 2.656 0 1.407-1.094 2.407-2.594 2.407-1.125 0-1.906-.594-2.906-2.188-2.156-3.406-4.937-5-8.719-5-7.437 0-11.718 6.531-12 18.281v.407H870c1.844-4.063 6.469-7.313 12.594-7.313 8.594 0 14.968 6.344 14.968 14.906 0 8.907-6.718 15.407-15.968 15.407Zm-.063-5c5.75 0 10.313-4.532 10.313-10.219 0-5.906-4.25-10.156-10.219-10.156-5.969 0-10.375 4.25-10.375 10 0 5.781 4.5 10.375 10.281 10.375Zm-660.29-226.206c8.54 0 15.657 5.989 15.657 19.578v.054c0 12.81-5.935 20.464-15.818 20.464-7.17 0-12.541-4.136-13.75-9.991l-.054-.295h6.875l.081.242c1.047 2.658 3.411 4.377 6.875 4.377 6.23 0 8.835-5.962 9.104-13.293.027-.403.054-.806.054-1.236h-.161c-1.531 3.545-5.398 6.231-10.635 6.231-7.466 0-12.73-5.371-12.73-12.649v-.054c0-7.815 6.15-13.428 14.502-13.428Zm0 20.787c4.431 0 7.815-3.116 7.815-7.439v-.027c0-4.297-3.384-7.654-7.734-7.654-4.297 0-7.761 3.33-7.761 7.52v.053c0 4.405 3.276 7.547 7.68 7.547Zm24.304-6.714a3.863 3.863 0 0 1-3.894-3.894c0-2.176 1.719-3.867 3.894-3.867 2.176 0 3.868 1.691 3.868 3.867 0 2.175-1.692 3.894-3.868 3.894Zm0 19.712a3.863 3.863 0 0 1-3.894-3.894c0-2.176 1.719-3.868 3.894-3.868 2.176 0 3.868 1.692 3.868 3.868 0 2.175-1.692 3.894-3.868 3.894ZM273.233 169v-7.439h-19.336v-5.908l16.087-25.405h9.856v25.62h5.264v5.693h-5.264V169h-6.607Zm-13.105-12.971h13.213v-20.544h-.161l-13.052 20.356v.188ZM299.149 169v-32.146h-.161l-10.017 6.875v-6.364l10.124-7.117h6.848V169h-6.794Z"/>
    <g opacity=".9">
      <rect width="10" height="12" x="892" y="150" fill="#fff" rx="1"/>
      <rect width="10" height="18" x="906" y="144" fill="#fff" rx="1"/>
      <rect width="10" height="25" x="921" y="137" fill="#fff" rx="1"/>
      <rect width="10" height="33" x="935" y="129" fill="#fff" rx="1"/>
    </g>
    <g opacity=".9">
      <path fill="#fff" d="M1024.15 137.633c-6.53-6.567-15.56-10.633-25.547-10.633-10.017 0-19.077 4.091-25.603 10.692l5.657 5.657c5.078-5.154 12.139-8.349 19.946-8.349a27.907 27.907 0 0 1 19.887 8.29l5.66-5.657Z"/>
      <path fill="#fff" d="M1014.95 146.825A22.903 22.903 0 0 0 998.603 140a22.933 22.933 0 0 0-16.411 6.885l5.658 5.657A14.958 14.958 0 0 1 998.603 148a14.96 14.96 0 0 1 10.697 4.482l5.65-5.657Zm-9.19 9.193a9.954 9.954 0 0 0-7.157-3.018 9.97 9.97 0 0 0-7.217 3.078l7.157 7.158 7.217-7.218Z"/>
    </g>
    <rect width="67" height="32" x="1053.5" y="129.5" stroke="#fff" stroke-width="3" opacity=".6" rx="6.5"/>
    <rect width="60" height="25" x="1057" y="133" fill="#fff" opacity=".9" rx="4"/>
    <path fill="#fff" d="M1124 141a4 4 0 0 1 4 4v1a4 4 0 0 1-4 4v-9Z" opacity=".6"/>
    <rect width="163" height="7" x="919" y="184" fill="#fff" opacity=".6" rx="3.5"/>
    <rect width="370" height="108" x="455" y="95" fill="#000" rx="54"/>
    <g opacity=".75">
      <rect width="50" height="50" x="726" y="124" fill="#121212" rx="25"/>
      <rect width="50" height="50" x="726" y="124" stroke="#0E0E0E" stroke-width="2" rx="25"/>
      <g filter="url(#d)">
        <path fill="#50A99A" d="M745.429 137.857c-8.448 2.477-11.263 16.715 0 22.286-2.816-7.428-2.816-14.238 0-22.286Z"/>
      </g>
      <g filter="url(#e)">
        <path fill="#50A99A" d="M743.572 143c-4.224 1.334-5.632 9 0 12-1.408-4-1.408-7.666 0-12Z"/>
      </g>
      <g filter="url(#f)" opacity=".4">
        <path fill="#D0FFF7" d="M745.309 141.066c-3.619.545-6.264 10.56-1.892 13.22-1.548-3.572-.774-10.714 1.892-13.22Z"/>
      </g>
      <g filter="url(#g)">
        <path fill="#3E518C" d="M756.571 137.857c8.448 2.477 11.263 16.715 0 22.286 2.816-7.428 2.816-14.238 0-22.286Z"/>
      </g>
      <g filter="url(#h)">
        <path fill="#26408D" d="M758.428 143c4.224 1.334 5.632 9 0 12 1.408-4 1.408-7.666 0-12Z"/>
      </g>
      <g filter="url(#i)" opacity=".5">
        <path fill="#0D308C" d="M756.691 141.066c3.619.545 6.264 10.56 1.892 13.22 1.548-3.572.774-10.714-1.892-13.22Z"/>
      </g>
    </g>
    <g opacity=".4">
      <rect width="72" height="72" fill="#141414" rx="36" transform="matrix(-1 0 0 1 545 113)"/>
      <rect width="46.8" height="46.8" fill="#000" rx="23.4" transform="matrix(-1 0 0 1 532.4 125.6)"/>
      <g filter="url(#j)">
        <path fill="#50A99A" d="M516.021 134.96c10.643 3.12 14.191 21.06 0 28.08 3.547-9.36 3.547-17.94 0-28.08Z"/>
      </g>
      <g filter="url(#k)">
        <path fill="#50A99A" d="M518.361 141.44c5.322 1.68 7.096 11.34 0 15.12 1.774-5.04 1.774-9.66 0-15.12Z"/>
      </g>
      <g filter="url(#l)" opacity=".5">
        <path fill="#D0FFF7" d="M516.171 139.002c4.561.688 7.893 13.307 2.385 16.658 1.95-4.5.975-13.5-2.385-16.658Z"/>
      </g>
      <g filter="url(#m)">
        <path fill="#3E518C" d="M501.979 134.96c-10.644 3.12-14.191 21.06 0 28.08-3.548-9.36-3.548-17.94 0-28.08Z"/>
      </g>
      <g filter="url(#n)">
        <path fill="#26408D" d="M499.638 141.44c-5.321 1.68-7.095 11.34 0 15.12-1.773-5.04-1.773-9.66 0-15.12Z"/>
      </g>
      <g filter="url(#o)" opacity=".5">
        <path fill="#0D308C" d="M501.828 139.002c-4.561.688-7.893 13.307-2.384 16.658-1.95-4.5-.975-13.5 2.384-16.658Z"/>
      </g>
    </g>
    <g opacity=".4">
      <path fill="#7C7C7C" d="M0 2358h18v16H0zm263 264h16v18h-16zm999-2354.999h18v16h-18zm-1262 0h18v16H0zm1019-267h16v18h-16zM1262 2357h18v16h-18z" opacity=".75" style="mix-blend-mode:screen"/>
    </g>
  </g>
  <defs>
    <filter id="b" width="1281" height="2642" x="-.5" y=".501" color-interpolation-filters="sRGB" filterUnits="userSpaceOnUse">
      <feFlood flood-opacity="0" result="BackgroundImageFix"/>
      <feBlend in="SourceGraphic" in2="BackgroundImageFix" result="shape"/>
      <feGaussianBlur result="effect1_foregroundBlur_2901_5301" stdDeviation="1.5"/>
    </filter>
    <filter id="c" width="1242" height="2604" x="19" y="19.001" color-interpolation-filters="sRGB" filterUnits="userSpaceOnUse">
      <feFlood flood-opacity="0" result="BackgroundImageFix"/>
      <feBlend in="SourceGraphic" in2="BackgroundImageFix" result="shape"/>
      <feGaussianBlur result="effect1_foregroundBlur_2901_5301" stdDeviation="1"/>
    </filter>
    <filter id="d" width="18.572" height="33.429" x="732.429" y="132.286" color-interpolation-filters="sRGB" filterUnits="userSpaceOnUse">
      <feFlood flood-opacity="0" result="BackgroundImageFix"/>
      <feBlend in="SourceGraphic" in2="BackgroundImageFix" result="shape"/>
      <feGaussianBlur result="effect1_foregroundBlur_2901_5301" stdDeviation="2.786"/>
    </filter>
    <filter id="e" width="14.857" height="23.143" x="734.286" y="137.429" color-interpolation-filters="sRGB" filterUnits="userSpaceOnUse">
      <feFlood flood-opacity="0" result="BackgroundImageFix"/>
      <feBlend in="SourceGraphic" in2="BackgroundImageFix" result="shape"/>
      <feGaussianBlur result="effect1_foregroundBlur_2901_5301" stdDeviation="2.786"/>
    </filter>
    <filter id="f" width="11.598" height="20.649" x="737.425" y="137.351" color-interpolation-filters="sRGB" filterUnits="userSpaceOnUse">
      <feFlood flood-opacity="0" result="BackgroundImageFix"/>
      <feBlend in="SourceGraphic" in2="BackgroundImageFix" result="shape"/>
      <feGaussianBlur result="effect1_foregroundBlur_2901_5301" stdDeviation="1.857"/>
    </filter>
    <filter id="g" width="18.572" height="33.429" x="751" y="132.286" color-interpolation-filters="sRGB" filterUnits="userSpaceOnUse">
      <feFlood flood-opacity="0" result="BackgroundImageFix"/>
      <feBlend in="SourceGraphic" in2="BackgroundImageFix" result="shape"/>
      <feGaussianBlur result="effect1_foregroundBlur_2901_5301" stdDeviation="2.786"/>
    </filter>
    <filter id="h" width="14.857" height="23.143" x="752.857" y="137.429" color-interpolation-filters="sRGB" filterUnits="userSpaceOnUse">
      <feFlood flood-opacity="0" result="BackgroundImageFix"/>
      <feBlend in="SourceGraphic" in2="BackgroundImageFix" result="shape"/>
      <feGaussianBlur result="effect1_foregroundBlur_2901_5301" stdDeviation="2.786"/>
    </filter>
    <filter id="i" width="11.598" height="20.649" x="752.976" y="137.351" color-interpolation-filters="sRGB" filterUnits="userSpaceOnUse">
      <feFlood flood-opacity="0" result="BackgroundImageFix"/>
      <feBlend in="SourceGraphic" in2="BackgroundImageFix" result="shape"/>
      <feGaussianBlur result="effect1_foregroundBlur_2901_5301" stdDeviation="1.857"/>
    </filter>
    <filter id="j" width="23.4" height="42.12" x="509.001" y="127.94" color-interpolation-filters="sRGB" filterUnits="userSpaceOnUse">
      <feFlood flood-opacity="0" result="BackgroundImageFix"/>
      <feBlend in="SourceGraphic" in2="BackgroundImageFix" result="shape"/>
      <feGaussianBlur result="effect1_foregroundBlur_2901_5301" stdDeviation="3.51"/>
    </filter>
    <filter id="k" width="18.72" height="29.16" x="511.341" y="134.42" color-interpolation-filters="sRGB" filterUnits="userSpaceOnUse">
      <feFlood flood-opacity="0" result="BackgroundImageFix"/>
      <feBlend in="SourceGraphic" in2="BackgroundImageFix" result="shape"/>
      <feGaussianBlur result="effect1_foregroundBlur_2901_5301" stdDeviation="3.51"/>
    </filter>
    <filter id="l" width="9.934" height="21.338" x="513.831" y="136.662" color-interpolation-filters="sRGB" filterUnits="userSpaceOnUse">
      <feFlood flood-opacity="0" result="BackgroundImageFix"/>
      <feBlend in="SourceGraphic" in2="BackgroundImageFix" result="shape"/>
      <feGaussianBlur result="effect1_foregroundBlur_2901_5301" stdDeviation="1.17"/>
    </filter>
    <filter id="m" width="23.4" height="42.12" x="485.599" y="127.94" color-interpolation-filters="sRGB" filterUnits="userSpaceOnUse">
      <feFlood flood-opacity="0" result="BackgroundImageFix"/>
      <feBlend in="SourceGraphic" in2="BackgroundImageFix" result="shape"/>
      <feGaussianBlur result="effect1_foregroundBlur_2901_5301" stdDeviation="3.51"/>
    </filter>
    <filter id="n" width="18.72" height="29.16" x="487.938" y="134.42" color-interpolation-filters="sRGB" filterUnits="userSpaceOnUse">
      <feFlood flood-opacity="0" result="BackgroundImageFix"/>
      <feBlend in="SourceGraphic" in2="BackgroundImageFix" result="shape"/>
      <feGaussianBlur result="effect1_foregroundBlur_2901_5301" stdDeviation="3.51"/>
    </filter>
    <filter id="o" width="9.934" height="21.338" x="494.235" y="136.662" color-interpolation-filters="sRGB" filterUnits="userSpaceOnUse">
      <feFlood flood-opacity="0" result="BackgroundImageFix"/>
      <feBlend in="SourceGraphic" in2="BackgroundImageFix" result="shape"/>
      <feGaussianBlur result="effect1_foregroundBlur_2901_5301" stdDeviation="1.17"/>
    </filter>
    <clipPath id="a">
      <rect width="1280" height="2642" fill="#fff" rx="210"/>
    </clipPath>
  </defs>
</svg>
